<?xml version="1.0" encoding="UTF-8" standalone="no"?>
<!-- Created with Inkscape (http://www.inkscape.org/) -->

<svg
   width="150"
   height="50"
   viewBox="0 0 39.6875 13.229167"
   version="1.1"
   id="svg1"
   inkscape:version="1.4 (86a8ad7, 2024-10-11)"
   sodipodi:docname="boton9.svg"
   inkscape:export-filename="..\Documents\UX\DAW-SM09-A201-cordero\spatiis fuscis\images\boton3.png"
   inkscape:export-xdpi="96"
   inkscape:export-ydpi="96"
   xmlns:inkscape="http://www.inkscape.org/namespaces/inkscape"
   xmlns:sodipodi="http://sodipodi.sourceforge.net/DTD/sodipodi-0.dtd"
   xmlns="http://www.w3.org/2000/svg"
   xmlns:svg="http://www.w3.org/2000/svg">
  <sodipodi:namedview
     id="namedview1"
     pagecolor="#505050"
     bordercolor="#eeeeee"
     borderopacity="1"
     inkscape:showpageshadow="0"
     inkscape:pageopacity="0"
     inkscape:pagecheckerboard="0"
     inkscape:deskcolor="#505050"
     inkscape:document-units="mm"
     showgrid="true"
     inkscape:zoom="2.0266667"
     inkscape:cx="23.190789"
     inkscape:cy="17.763158"
     inkscape:window-width="1245"
     inkscape:window-height="1020"
     inkscape:window-x="439"
     inkscape:window-y="131"
     inkscape:window-maximized="0"
     inkscape:current-layer="svg1">
    <inkscape:grid
       id="grid1"
       units="mm"
       originx="0"
       originy="0"
       spacingx="1"
       spacingy="1"
       empcolor="#0099e5"
       empopacity="0.30196078"
       color="#0099e5"
       opacity="0.14901961"
       empspacing="5"
       enabled="true"
       visible="true" />
  </sodipodi:namedview>
  <defs
     id="defs1" />
  <g
     inkscape:label="Capa 1"
     inkscape:groupmode="layer"
     id="layer1"
     sodipodi:insensitive="true">
    <path
       style="fill:#2c006d;fill-opacity:1;stroke:#000000;stroke-width:0.264583;stroke-dasharray:none;stroke-opacity:1"
       d="m 2.9504897,1.0486503 0.011525,0.9296423 -0.9850389,-0.00689 0.00735,0.9840754 -1.16931218,-4.815e-4 4.6874e-4,7.0699755 1.16441154,5e-4 0.00976,1.05327 0.9623364,-0.02131 0.011447,1.184283 34.0340197,0.154188 5.5e-4,-1.259701 0.889053,-0.01099 -0.02457,-1.080148 0.996003,-0.02355 0.02752,-7.1135784 -0.904397,-0.00649 -0.01095,-0.8947494 -0.983499,0.011763 0.0011,-0.8876701 z"
       id="path1"
       sodipodi:nodetypes="ccccccccccccccccccccc"
       sodipodi:insensitive="true" />
  </g>
  <path
     style="fill:none;fill-opacity:1;stroke:#000000;stroke-width:0.264583;stroke-dasharray:none;stroke-opacity:1"
     d="m 2.0199787,3.9936458 -0.00637,5.0837103 0.9411302,0.017814 0.00578,0.8551649 0.9763149,-0.0066 0.019167,1.1085514 32.1401649,0.07027 -0.0054,-1.1644303 0.992979,0.017954 -0.0064,-0.9430448 0.803243,-0.030254 0.0026,-4.9633351 -0.730504,0.0055 -0.0069,-0.9896266 -1.04607,0.00707 -0.0074,-1.0933353 -32.0433742,-0.013058 -0.010429,1.035333 -0.9985229,-0.00847 0.00637,1.0407285 z"
     id="path3"
     sodipodi:nodetypes="ccccccccccccccccccccc" />
  <path
     style="fill:#ffffff;fill-opacity:1;stroke:#000000;stroke-width:0.132207;stroke-dasharray:none;stroke-opacity:1"
     d="m 42.809384,-20.124574 2.495188,0.01631 -0.01486,-0.742017 -1.735399,-0.0081 -0.0053,-0.652305 1.73159,0.0082 -0.0053,-0.782772 -1.733949,-0.02443 -0.01341,-0.578916 1.78867,0.02449 0.01105,-0.766464 -2.533986,-0.01656 -0.02302,3.522361 z"
     id="path5-8-5"
     sodipodi:nodetypes="cccccccccccccc" />
  <path
     style="fill:#ffffff;fill-opacity:1;stroke:#000000;stroke-width:0.16029;stroke-dasharray:none;stroke-opacity:1"
     d="m -24.636513,-13.321218 3.025218,0.01977 -0.01802,-0.899636 -2.104033,-0.0099 -0.0064,-0.790868 2.099416,0.0099 -0.0064,-0.949048 -2.102276,-0.02962 -0.01626,-0.701891 2.168621,0.02969 0.0134,-0.929276 -3.072257,-0.02008 -0.02791,4.270584 z"
     id="path5-8-5-9"
     sodipodi:nodetypes="cccccccccccccc" />
  <path
     style="fill:#ffffff;fill-opacity:1;stroke:#000000;stroke-width:0.126256;stroke-dasharray:none;stroke-opacity:1"
     d="m 59.406381,-20.20536 2.38287,0.01558 -0.01419,-0.708616 -1.657282,-0.0078 -0.005,-0.622942 1.653645,0.0078 -0.005,-0.747536 -1.655897,-0.02333 -0.01281,-0.552857 1.708156,0.02339 0.01056,-0.731963 -2.419921,-0.01581 -0.02198,3.363808 z"
     id="path5-8-5-1"
     sodipodi:nodetypes="cccccccccccccc" />
  <path
     style="fill:#ffffff;fill-opacity:1;stroke:#000000;stroke-width:0.162126;stroke-dasharray:none;stroke-opacity:1"
     d="m 37.928189,-20.471672 -0.0027,-1.133179 0.958602,-0.0024 0.0092,-0.519582 -0.978854,6.33e-4 0.01317,-1.157837 -0.556342,-0.01296 -0.0399,1.1423 -0.979445,-0.01368 -0.0021,0.58095 0.99922,-0.0047 -0.0021,1.116536 z"
     id="path5-8-5-1-1"
     sodipodi:nodetypes="ccccccccccccc" />
  <path
     id="path6"
     style="fill:#ffffff;fill-opacity:1;stroke:#000000;stroke-width:0.173227;stroke-dasharray:none;stroke-opacity:1"
     d="m 26.984871,-13.657433 -2.640364,3.37e-4 -0.01759,4.5292873 1.317137,-0.00947 0.0024,-1.3029263 0.643513,3.38e-4 c 0,0 0.01413,0.8266547 0.02876,1.315445 l 1.335407,0.00812 -0.0017,-1.926139 -0.453707,-0.01387 -0.0044,-0.406679 0.441526,-0.0024 -6.55e-4,-1.347248 -0.287584,-0.01015 0.0054,-0.40634 -0.35559,-6.55e-4 z m -1.607429,0.97508 1.100265,0.0098 0.01184,0.838055 -1.119549,-0.003 z" />
  <path
     id="path6-5"
     style="fill:#ffffff;fill-opacity:1;stroke:#000000;stroke-width:0.16029;stroke-dasharray:none;stroke-opacity:1"
     d="m -18.075574,-17.615499 -2.443176,3.12e-4 -0.01628,4.191031 1.218771,-0.0088 0.0022,-1.205621 0.595454,3.13e-4 c 0,0 0.01307,0.764918 0.02661,1.217205 l 1.235676,0.0075 -0.0016,-1.782291 -0.419823,-0.01283 -0.0041,-0.376308 0.408552,-0.0022 -6.06e-4,-1.246633 -0.266106,-0.0094 0.005,-0.375993 -0.329034,-6.06e-4 z m -1.487383,0.902259 1.018095,0.0091 0.01096,0.775468 -1.035939,-0.0028 z" />
  <path
     id="path6-1"
     style="fill:#ffffff;fill-opacity:1;stroke:#000000;stroke-width:0.132207;stroke-dasharray:none;stroke-opacity:1"
     d="m 41.793726,-23.702048 -2.015123,2.58e-4 -0.01342,3.456746 c 0,0 2.008347,-0.003 2.028693,-0.0099 l -0.02621,-0.342887 0.301369,-0.01059 -0.02204,-0.37265 0.262243,-0.01429 -0.01918,-2.061945 -0.219484,-0.0078 0.0041,-0.310119 -0.271385,-4.99e-4 z m -1.226788,0.74418 0.839721,0.0075 0.02772,1.847694 -0.841984,-0.0085 z"
     sodipodi:nodetypes="cccccccccccccccccc" />
  <path
     style="fill:#ffffff;fill-opacity:1;stroke:#000000;stroke-width:0.173227"
     d="m 8.9332402,-9.0759865 0.6622391,0.011602 0.00602,-0.6437673 0.6708017,-0.00576 1.69e-4,-0.6082382 0.635134,-0.0031 0.0029,0.6233956 0.612605,0.0096 0.01152,0.6342653 0.657416,-0.020342 -0.0037,-1.2691309 -0.644358,-0.01652 -0.0012,-0.671787 -0.559087,6.3e-4 -0.01776,-0.641667 0.57881,0.0041 -0.0024,-0.633367 0.634227,-0.01882 7.2e-4,-1.273326 -0.685999,0.0069 0.02524,0.608207 -0.605559,0.01925 0.01523,0.627423 -0.715845,0.0014 -0.01444,-0.62465 -0.6162823,-0.0094 -0.040134,-0.61972 -0.7468457,-0.0094 0.012446,1.254151 0.7309969,0.02428 0.021769,0.633724 0.6272521,0.01017 0.0035,0.622338 -0.6286839,0.004 -1.022e-4,0.675985 -0.630076,0.0056 z"
     id="path2"
     sodipodi:nodetypes="ccccccccccccccccccccccccccccccccccccc" />
  <path
     id="path5"
     style="fill:#ffffff;fill-opacity:1;stroke:#000000;stroke-width:0.173227;stroke-dasharray:none;stroke-opacity:1"
     d="m 13.258402,-13.655423 0.0063,0.368403 h -0.384517 l -0.01353,4.1224076 0.798156,0.00229 0.420611,0.00229 0.03972,-2.1208716 1.513905,-0.0066 -0.0088,-0.481903 0.400308,-0.0089 0.0047,-1.49101 -0.385952,-0.0089 -0.0047,-0.377295 z m 0.417196,0.594947 1.185598,0.02103 0.01234,0.29879 0.378325,0.01654 0.0144,0.446384 -0.422158,-0.0031 0.0046,0.355864 -1.158996,-0.0044 z"
     sodipodi:nodetypes="ccccccccccccccccccccccc" />
  <path
     style="fill:#ffffff;fill-opacity:1;stroke:#000000;stroke-width:0.173608;stroke-dasharray:none;stroke-opacity:1"
     d="m 16.739511,-13.650122 v 4.3662269 h 3.350092 v -1.2293259 h -2.085022 v -3.136901 z"
     id="path4" />
  <path
     style="fill:#ffffff;fill-opacity:1;stroke:#000000;stroke-width:0.132497;stroke-dasharray:none;stroke-opacity:1"
     d="m 52.959649,-23.410667 v 3.332299 h 2.556786 v -0.93822 h -1.591286 v -2.394079 z"
     id="path4-49" />
  <path
     style="fill:#ffffff;fill-opacity:1;stroke:#000000;stroke-width:0.132497;stroke-dasharray:none;stroke-opacity:1"
     d="m 56.141697,-23.429529 v 3.332299 h 2.556787 v -0.93822 h -1.591287 v -2.394079 z"
     id="path4-49-1" />
  <path
     style="fill:#ffffff;fill-opacity:1;stroke:#000000;stroke-width:0.138995;stroke-dasharray:none;stroke-opacity:1"
     d="m 46.318224,-23.54934 0.009,0.66914 0.882701,0.0095 0.02244,2.81761 0.776558,-0.02504 0.0045,-2.772617 0.893265,-0.01553 0.01176,-0.665503 -1.615959,-0.01757 z"
     id="path4-4"
     sodipodi:nodetypes="cccccccccc" />
  <path
     style="fill:#ffffff;fill-opacity:1;stroke:#000000;stroke-width:0.180236;stroke-dasharray:none;stroke-opacity:1"
     d="m 24.198621,-32.344485 0.01152,0.877125 1.132283,0.01246 0.02879,3.693385 0.996129,-0.03282 0.0058,-3.634407 1.145836,-0.02036 0.01508,-0.872357 -2.072869,-0.02303 z"
     id="path4-4-6"
     sodipodi:nodetypes="cccccccccc" />
  <path
     style="fill:#ffffff;fill-opacity:1;stroke:#000000;stroke-width:0.160643;stroke-dasharray:none;stroke-opacity:1"
     d="m -12.559217,-17.528398 -0.0151,4.077898 c 0.524937,0.0014 0.294852,0.0053 0.819779,0.0025 -0.02598,-1.335047 -0.0026,-2.760666 0.01861,-4.095542 z"
     id="path4-1"
     sodipodi:nodetypes="ccccc" />
  <path
     style="fill:#ffffff;fill-opacity:1;stroke:#000000;stroke-width:0.160643;stroke-dasharray:none;stroke-opacity:1"
     d="m -6.9088326,-17.335063 -0.0151,4.077898 c 0.524937,0.0014 0.294852,0.0053 0.819779,0.0025 -0.02598,-1.335047 -0.0026,-2.760666 0.01861,-4.095542 z"
     id="path4-1-7"
     sodipodi:nodetypes="ccccc" />
  <path
     style="fill:#ffffff;fill-opacity:1;stroke:#000000;stroke-width:0.169412;stroke-dasharray:none;stroke-opacity:1"
     d="m -16.667787,-16.099727 0.0086,0.579523 0.424524,0.03071 -0.0029,0.568547 0.285904,0.05854 -0.0212,0.734294 0.349027,0.04058 0.02805,0.630074 0.713118,0.04151 0.06399,-0.766967 0.433654,0.0014 -0.0053,-0.712086 0.422103,-0.0096 0.0062,-0.690133 0.344045,-0.02058 0.02654,-1.908499 -0.606462,0.0026 -0.05198,1.433464 -0.461174,0.0042 -0.01264,0.896758 -0.320571,-0.01317 -0.03376,0.578999 -0.271961,-0.0041 -0.0096,-0.558592 -0.30183,4.18e-4 0.0023,-0.92088 -0.318393,-0.01362 0.05125,-1.396627 -0.734253,-0.0026 z"
     id="path4-2"
     sodipodi:nodetypes="cccccccccccccccccccccccccccccc" />
  <path
     id="path2-8-5"
     style="fill:#ffffff;fill-opacity:1;stroke:#000000;stroke-width:0.132207;stroke-dasharray:none;stroke-opacity:1"
     d="m 50.406046,-23.607849 0.0015,0.296442 -0.408704,0.0016 0.01106,1.094371 -0.272869,0.0024 -7.63e-4,0.932374 -0.28828,-0.0014 0.0096,1.174639 0.551125,-0.0055 0.0034,-0.707395 0.394475,-0.009 0.0067,-0.311764 0.679629,0.0056 0.0072,0.303301 0.267002,0.0047 -0.0031,0.710203 0.671089,0.01201 -0.0021,-1.053972 -0.298577,0.0019 -0.0055,-1.053877 -0.358671,-0.0018 -0.0049,-1.091357 -0.300703,-0.0013 -0.003,-0.288827 z m 0.215477,0.704679 0.25519,9.16e-4 0.0018,0.684309 0.18051,0.004 4.99e-4,0.337421 -0.0017,0.368695 -0.646702,-0.0067 c -0.0063,-0.124077 -0.002,-0.342972 -0.002,-0.342972 l -0.0073,-0.351518 0.216403,5.51e-4 z"
     sodipodi:nodetypes="cccccccccccccccccccccccccccccccccccc" />
  <path
     id="path2-8-5-6"
     style="fill:#ffffff;fill-opacity:1;stroke:#000000;stroke-width:0.173227;stroke-dasharray:none;stroke-opacity:1"
     d="m 17.787885,-32.471873 0.002,0.38842 -0.535514,0.0021 0.01449,1.433927 -0.357533,0.0032 -0.001,1.221665 -0.377726,-0.0018 0.01253,1.5391 0.722125,-0.0072 0.0045,-0.926881 0.516871,-0.01178 0.0088,-0.408497 0.890501,0.0073 0.0095,0.397407 0.349845,0.0062 -0.0041,0.930561 0.87931,0.01574 -0.0027,-1.380992 -0.391218,0.0025 -0.0072,-1.380869 -0.469958,-0.0023 -0.0064,-1.429977 -0.394004,-0.0017 -0.0039,-0.378442 z m 0.282333,0.923323 0.334369,0.0012 0.0024,0.896632 0.236517,0.0052 6.54e-4,0.442114 -0.0022,0.483092 -0.847357,-0.0088 c -0.0082,-0.162575 -0.0026,-0.449387 -0.0026,-0.449387 l -0.0096,-0.460585 0.283547,7.21e-4 z"
     sodipodi:nodetypes="cccccccccccccccccccccccccccccccccccc" />
  <path
     id="path2-8-5-6-0"
     style="fill:#ffffff;fill-opacity:1;stroke:#000000;stroke-width:0.173227;stroke-dasharray:none;stroke-opacity:1"
     d="m 29.237995,-32.276382 0.002,0.38842 -0.535514,0.0021 0.01449,1.433927 -0.357533,0.0032 -0.001,1.221665 -0.377726,-0.0018 0.01253,1.539101 0.722125,-0.0072 0.0045,-0.926882 0.516871,-0.01178 0.0088,-0.408497 0.890501,0.0073 0.0095,0.397407 0.349845,0.0062 -0.0041,0.930561 0.87931,0.01574 -0.0027,-1.380992 -0.391218,0.0025 -0.0072,-1.380869 -0.469958,-0.0023 -0.0064,-1.429977 -0.394004,-0.0017 -0.0039,-0.378442 z m 0.282333,0.923323 0.334369,0.0012 0.0024,0.896632 0.236517,0.0052 6.54e-4,0.442114 -0.0022,0.483092 -0.847357,-0.0088 c -0.0082,-0.162575 -0.0026,-0.449387 -0.0026,-0.449387 l -0.0096,-0.460585 0.283547,7.21e-4 z"
     sodipodi:nodetypes="cccccccccccccccccccccccccccccccccccc" />
  <path
     id="path7"
     style="fill:#ffffff;fill-opacity:1;stroke:#000000;stroke-width:0.173227;stroke-dasharray:none;stroke-opacity:1"
     d="m 20.551877,-13.11259 -9e-5,3.310971 0.321043,0.015451 0.0024,0.3341778 0.442976,-0.01335 0.01,0.3039583 1.835893,0.024427 -0.0051,-0.3608736 0.349947,-0.01335 0.0024,-0.3004342 0.319727,-0.01335 -6.44e-4,-3.3083783 -0.300303,-0.01343 -0.0065,-0.317935 -0.327014,-0.0028 0.0021,-0.268481 -1.974488,-0.02275 -0.01183,0.333804 -0.294961,0.0079 -0.01183,0.301753 z m 1.197243,0.117313 0.988041,0.02212 0.0031,0.352494 0.326637,0.0076 0.0075,2.299086 -0.324002,-0.0013 -0.0089,0.4142293 -1.061914,-4.196e-4 0.0014,-0.3939747 -0.297806,-0.0093 c -5.3e-4,-0.0041 0.01211,-2.354511 0.01211,-2.354511 l 0.359275,0.0014 z"
     sodipodi:nodetypes="cccccccccccccccccccccccccccccccccc" />
  <path
     id="path7-9"
     style="fill:#ffffff;fill-opacity:1;stroke:#000000;stroke-width:0.16029;stroke-dasharray:none;stroke-opacity:1"
     d="m -5.0286196,-16.862696 -8.4e-5,3.063701 0.297067,0.0143 0.0022,0.309221 0.409894,-0.01235 0.0093,0.281258 1.698785,0.0226 -0.0047,-0.333923 0.323813,-0.01235 0.0022,-0.277997 0.29585,-0.01235 -5.96e-4,-3.061302 -0.277876,-0.01243 -0.006,-0.294191 -0.302592,-0.0026 0.0019,-0.24843 -1.82703,-0.02105 -0.01095,0.308874 -0.272933,0.0073 -0.01095,0.279218 z m 1.10783,0.108552 0.914252,0.02047 0.0029,0.326169 0.302243,0.007 0.0069,2.127386 -0.299805,-0.0012 -0.0082,0.383294 -0.982608,-3.89e-4 0.0013,-0.364552 -0.275566,-0.0086 c -4.9e-4,-0.0038 0.01121,-2.178671 0.01121,-2.178671 l 0.332444,0.0013 z"
     sodipodi:nodetypes="cccccccccccccccccccccccccccccccccc" />
  <path
     id="path7-7"
     style="fill:#ffffff;fill-opacity:1;stroke:#000000;stroke-width:0.176728;stroke-dasharray:none;stroke-opacity:1"
     d="m 4.7153401,-32.00351 -9.17e-5,3.412229 0.3245528,0.01592 0.0024,0.344399 0.447817,-0.01376 0.01011,0.313255 1.8559598,0.02517 -0.0051,-0.37191 0.353771,-0.01376 0.0024,-0.309623 0.323227,-0.01376 -7.18e-4,-3.409555 -0.303586,-0.01385 -0.0066,-0.32766 -0.330588,-0.0029 0.0021,-0.276692 -1.9960688,-0.02345 -0.01196,0.344012 -0.298185,0.0081 -0.01196,0.310981 z m 1.210329,0.120902 0.9988419,0.02279 0.0032,0.363274 0.330207,0.0078 0.0076,2.369397 -0.327543,-0.0013 -0.009,0.426897 -1.0735219,-4.32e-4 0.0014,-0.406024 -0.3010609,-0.0096 c -5.42e-4,-0.0042 0.01225,-2.426519 0.01225,-2.426519 l 0.3632029,0.0014 z"
     sodipodi:nodetypes="cccccccccccccccccccccccccccccccccc" />
  <path
     id="path7-5"
     style="fill:#ffffff;fill-opacity:1;stroke:#000000;stroke-width:0.18265;stroke-dasharray:none;stroke-opacity:1"
     d="m 16.896997,-24.42126 -9.5e-5,3.491085 0.338508,0.01629 0.0025,0.352357 0.467074,-0.01408 0.01054,0.320493 1.935764,0.02576 -0.0054,-0.380505 0.368984,-0.01408 0.0025,-0.316777 0.33712,-0.01408 -6.63e-4,-3.48835 -0.316639,-0.01416 -0.0069,-0.33523 -0.344803,-0.0029 0.0022,-0.283086 -2.081898,-0.02399 -0.01248,0.351962 -0.311007,0.0083 -0.01247,0.318168 z m 1.262372,0.123695 1.041789,0.02332 0.0033,0.37167 0.344406,0.008 0.0079,2.424153 -0.341627,-0.0014 -0.0094,0.436763 -1.119681,-4.42e-4 0.0015,-0.415406 -0.314006,-0.0098 c -5.52e-4,-0.0043 0.01277,-2.482594 0.01277,-2.482594 l 0.378819,0.0015 z"
     sodipodi:nodetypes="cccccccccccccccccccccccccccccccccc" />
  <path
     style="fill:#ffffff;fill-opacity:1;stroke:#000000;stroke-width:0.14613;stroke-dasharray:none;stroke-opacity:1"
     d="m 1.6187318,-28.097713 2.2943025,-0.01417 -1.6e-6,-0.372405 0.3753245,-0.006 0.00725,-0.75944 -0.7731421,-0.0012 -0.00317,0.369658 -1.140565,0.0095 7e-7,-0.379925 -0.3789758,0.0055 1.119e-4,-2.298518 0.3829488,0.0015 -9.168e-4,-0.38701 1.1500431,-10e-7 -0.00187,0.388248 0.7664744,0.0027 -0.00133,-0.768871 -0.3866538,0.0024 0.00447,-0.383959 -2.2987706,0.0089 0.00233,0.35897 -0.373745,-0.0029 -0.0026,3.835279 0.3724362,0.01046 z"
     id="path6-8"
     sodipodi:nodetypes="ccccccccccccccccccccccccc" />
  <path
     style="fill:#ffffff;fill-opacity:1;stroke:#000000;stroke-width:0.14613;stroke-dasharray:none;stroke-opacity:1"
     d="m 21.050847,-27.807888 2.294302,-0.01417 -1e-6,-0.372405 0.375324,-0.006 0.0072,-0.75944 -0.773142,-0.0012 -0.0032,0.369658 -1.140565,0.0095 1e-6,-0.379925 -0.378976,0.0055 1.12e-4,-2.298518 0.382949,0.0015 -9.17e-4,-0.38701 1.150043,-10e-7 -0.0019,0.388248 0.766474,0.0027 -0.0013,-0.768871 -0.386653,0.0024 0.0045,-0.383959 -2.298771,0.0089 0.0023,0.35897 -0.373745,-0.0029 -0.0026,3.835279 0.372436,0.01046 z"
     id="path6-8-3"
     sodipodi:nodetypes="ccccccccccccccccccccccccc" />
  <path
     style="fill:#ffffff;fill-opacity:1;stroke:#000000;stroke-width:0.135217;stroke-dasharray:none;stroke-opacity:1"
     d="m -10.421456,-13.202507 2.1229604,-0.01311 -2e-6,-0.344593 0.347295,-0.0055 0.0067,-0.702724 -0.715402,-0.0011 -0.003,0.342052 -1.055385,0.0088 v -0.351553 l -0.3506734,0.0051 1.03e-4,-2.12686 0.3543504,0.0014 -8.49e-4,-0.358108 1.064156,-10e-7 -0.0018,0.359253 0.709233,0.0025 -0.0012,-0.71145 -0.357778,0.0022 0.0042,-0.355284 -2.1270944,0.0082 0.0021,0.332161 -0.345833,-0.0027 -0.0024,3.548853 0.344623,0.0097 z"
     id="path6-8-7"
     sodipodi:nodetypes="ccccccccccccccccccccccccc" />
  <path
     style="fill:#ffffff;fill-opacity:1;stroke:#000000;stroke-width:0.14613;stroke-dasharray:none;stroke-opacity:1"
     d="m 21.329507,-20.327395 2.294303,-0.01417 -2e-6,-0.372405 0.375325,-0.006 0.0072,-0.759439 -0.773142,-0.0012 -0.0031,0.369657 -1.140565,0.0095 1e-6,-0.379925 -0.378976,0.0055 1.12e-4,-2.298518 0.382949,0.0016 -9.39e-4,-0.38701 1.150043,-1e-6 -0.0019,0.388248 0.766474,0.0026 -0.0013,-0.768871 -0.386654,0.0024 0.0045,-0.383959 -2.298771,0.0089 0.0023,0.35897 -0.373746,-0.0029 -0.0026,3.835279 0.372436,0.01046 z"
     id="path6-8-2"
     sodipodi:nodetypes="ccccccccccccccccccccccccc" />
  <path
     style="fill:#ffffff;fill-opacity:1;stroke:#000000;stroke-width:0.183727;stroke-dasharray:none;stroke-opacity:1"
     d="m 11.067351,-27.877558 0.810198,0.0294 0.04215,-4.806863 -0.889785,2.7e-4 0.02653,2.323016 -0.427986,-0.01118 0.0039,-0.538721 -0.635593,-0.01744 -0.02997,-0.521758 -0.408929,-0.0205 c -3.76e-4,0.01152 -0.01121,-1.230461 -0.01121,-1.230461 l -0.922708,-0.0056 c 0.004,0.0085 -0.0026,4.751086 -0.0026,4.751086 l 0.941291,0.03079 -0.0351,-2.196917 0.466947,2.62e-4 0.01385,0.475438 0.535114,0.0015 -0.0027,0.41693 0.524141,0.0074 z"
     id="path8"
     sodipodi:nodetypes="ccccccccccccccccccccc" />
  <path
     style="fill:#ffffff;fill-opacity:1;stroke:#000000;stroke-width:0.0745226;stroke-dasharray:none;stroke-opacity:1"
     d="m 63.213069,-20.460382 0.0028,0.269228 1.695862,-0.0034 4.22e-4,-0.266427 0.273026,-0.0082 0.0056,-1.416941 -0.291997,-0.0043 0.0033,-0.280396 -1.125345,-5.67e-4 0.0044,-0.543226 1.397607,-0.01225 0.0045,-0.573612 -0.269948,-0.0027 5.97e-4,-0.263134 -1.711211,-0.0034 0.0085,0.290838 h -0.275618 l -0.0015,1.397197 0.294616,0.0028 -0.0098,0.276749 1.130326,0.0056 -0.0019,0.551216 -1.417464,-0.01099 0.0028,0.587231 z"
     id="path2-7"
     sodipodi:nodetypes="ccccccccccccccccccccccccc" />
  <path
     style="fill:#ffffff;fill-opacity:1;stroke:#000000;stroke-width:0.0934798;stroke-dasharray:none;stroke-opacity:1"
     d="m -1.0313416,-13.419099 0.0035,0.337715 2.127259,-0.0042 5.29e-4,-0.334202 0.342479,-0.01024 0.0071,-1.777384 -0.366277,-0.0053 0.0041,-0.351724 -1.41161097,-7.12e-4 0.0056,-0.681411 1.75313297,-0.01536 0.0056,-0.71953 -0.338618,-0.0034 7.49e-4,-0.33007 -2.146511,-0.0042 0.01061,0.364822 h -0.345732 l -0.0018,1.752618 0.369561,0.0035 -0.01223,0.347149 1.41786003,0.0071 -0.0024,0.691435 -1.77804103,-0.01379 0.0035,0.736612 z"
     id="path2-7-0"
     sodipodi:nodetypes="ccccccccccccccccccccccccc" />
</svg>
